# xmcd
#
# Track frame offsets: 
#        182
#        18575
#        30895
#        48627
#        81037
#        120455
#        142430
#        165882
#        177297
#        198565
#        219445
#        236972
#        263255
#        276047
#        291085
#
# Disc length: 4235 seconds
#
# Revision: 5
# Processed by: cddbd v1.5.2PL0 Copyright (c) Steve Scherf et al.
# Submitted via: ExactAudioCopy v1.0b3
#
DISCID=d110890f
DTITLE=Louis Armstrong - Verve Jazz Masters 01
DYEAR=1957
DGENRE=Jazz
TTITLE0=Just One of Those Things
TTITLE1=That Old Feeling
TTITLE2=I Got a Right to Sing the Blues
TTITLE3=Learnin' the Blues
TTITLE4=Let's Do it (let's Fall in Love)
TTITLE5=There's a Boat Dat's Leavin' Soon for New York
TTITLE6=Blues in the Night
TTITLE7=You're the Top
TTITLE8=Body and Soul
TTITLE9=When Your Lover Has Gone
TTITLE10=A Fine Romance
TTITLE11=Home
TTITLE12=I've Got the World on  String
TTITLE13=I Was Doing All Right
TTITLE14=When the Saints Go Machin' in
EXTD=0\n\n\n YEAR: 1993
EXTT0=
EXTT1=
EXTT2=
EXTT3=
EXTT4=
EXTT5=
EXTT6=
EXTT7=
EXTT8=
EXTT9=
EXTT10=
EXTT11=
EXTT12=
EXTT13=
EXTT14=
PLAYORDER=
